<?xml version="1.0" encoding="UTF-8"?>
<!-- Created with Inkscape (http://www.inkscape.org/) -->
<svg width="512" height="512" version="1.1" viewBox="0 0 135.47 135.47" xml:space="preserve" xmlns="http://www.w3.org/2000/svg"><path d="m31.628 101.53c-7.3472-0.45998-14.474-3.416-20.079-8.3294-6.2566-5.484-10.252-13.012-11.286-21.264-1.1166-8.9146 1.3512-17.891 6.8702-24.991 1.6429-2.1134 3.8262-4.2968 5.9396-5.9396 5.4134-4.2085 11.892-6.6506 18.758-7.071 1.5383-0.09424 70.266-0.09424 71.805 0 11.181 0.68493 21.206 6.7643 27.009 16.379 2.7747 4.5969 4.4252 9.9343 4.7596 15.391 0.4154 6.7813-1.2714 13.676-4.7596 19.455-4.186 6.935-10.651 12.132-18.271 14.686-2.8268 0.94758-5.7166 1.5073-8.7384 1.6927-1.3786 0.0846-70.652 0.0772-72.009-8e-3zm35.833-14.799c6.1537-0.70041 10.119-3.7753 11.121-8.623 0.20016-0.96859 0.24865-3.0136 0.09356-3.946-0.49898-3.0004-2.4625-5.6364-5.1271-6.8826l-0.51853-0.2425 0.4023-0.19026c1.7824-0.84296 3.0888-2.2983 3.6708-4.0889 0.30686-0.94446 0.40793-1.6584 0.40751-2.8789-7.94e-4 -1.6344-0.26403-2.9033-0.86797-4.1804-1.2498-2.6427-3.7931-4.5283-7.1819-5.325-1.1614-0.273-2.0599-0.38489-3.4547-0.43029-7.1832-0.2338-12.006 2.8054-12.939 8.1534-0.15136 0.86799-0.19554 2.0669-0.1064 2.8874 0.28673 2.6396 1.4361 4.4691 3.8494 6.1278l0.4912 0.33756-0.20481 0.08483c-0.11264 0.04667-0.48149 0.24833-0.81963 0.44815-2.0869 1.2332-3.6536 3.1033-4.3511 5.1935-0.3224 0.96623-0.41275 1.6041-0.40987 2.8932 4e-3 1.7605 0.26315 2.971 0.93758 4.3789 0.96967 2.024 2.4552 3.5327 4.59 4.6612 1.8188 0.96158 4.0021 1.5563 6.3543 1.7307 1.0047 0.07449 2.9012 0.02392 4.0632-0.10836zm-2.8887-5.9322c-2.4027-0.15948-4.3506-1.4976-4.9882-3.4266-0.37571-1.1368-0.38987-2.3711-0.04032-3.5184 0.3547-1.1645 1.1834-2.1312 2.2961-2.6784 1.0985-0.54031 2.4609-0.78552 3.8534-0.69347 3.1139 0.20581 4.8993 1.632 5.2986 4.2323 0.10258 0.66805 0.03816 1.8568-0.13706 2.5296-0.6562 2.5194-2.885 3.7809-6.2823 3.5552zm-0.57952-16.622c-1.604-0.24975-2.7141-0.96718-3.2962-2.1301-0.33377-0.66686-0.44765-1.2983-0.39095-2.168 0.08052-1.2355 0.44273-2.0947 1.1697-2.7747 0.73494-0.68752 1.6239-1.0311 3.0006-1.1596 1.3108-0.12239 2.5155 0.06982 3.5169 0.56108 0.99706 0.48919 1.7082 1.3676 2.0179 2.4926 0.17418 0.63262 0.16208 2.0326-0.02294 2.6564-0.26546 0.89485-0.81166 1.5683-1.6224 2.0004-1.0219 0.54467-2.8358 0.76123-4.3725 0.52197zm-19.02 4.2034v-17.85h-5.4327l-0.61984 0.58386c-1.2004 1.1307-2.5233 2.028-4.1423 2.8096-1.1781 0.56878-2.0283 0.88421-3.1745 1.1778l-0.88998 0.22795-0.03534 5.7872 0.44614-0.04571c1.6148-0.16545 4.8377-0.94448 5.6655-1.3695 0.1006-0.05165 0.21492-0.09391 0.25403-0.09391 0.0494 0 0.0711 4.0624 0.0711 13.311v13.311h7.8579zm52.229 5.6224v-3.7597h7.3837v-6.0968h-7.3837v-7.4515h-6.0965v7.4515h-7.316v6.0968h7.316v7.5192h6.0965z" display="none" stroke-width=".067741"/><g fill="#fff" stroke-width=".26458"><path d="m33.801 81.293c18.663-0.03749 49.203-0.03749 67.866 0s3.3933 0.06816-33.933 0.06816c-37.326 0-52.596-0.03067-33.933-0.06816zm0-27.252c18.663-0.03749 49.203-0.03749 67.866 0s3.3933 0.06816-33.933 0.06816c-37.326 0-52.596-0.03067-33.933-0.06816z" display="none"/><path d="m33.801 108.28c18.663-0.0375 49.203-0.0375 67.866 0s3.3933 0.0682-33.933 0.0682c-37.326 0-52.596-0.0307-33.933-0.0682zm0-81.227c18.663-0.03749 49.203-0.03749 67.866 0s3.3933 0.06816-33.933 0.06816c-37.326 0-52.596-0.03067-33.933-0.06816z" display="none"/><path d="m0 121.97v-13.494h135.47v26.988h-135.47zm0-54.24v-13.494h135.47v26.987h-135.47zm0-54.24v-13.494h135.47v26.987h-135.47z"/></g><g display="none" fill="none" stroke="#000" stroke-linecap="round" stroke-linejoin="round" stroke-width="14.709"><ellipse cx="67.739" cy="67.733" rx="60.379" ry="60.384" color="#ffffff"/><path d="m67.739 128.12c16.101-14.638 24.152-34.766 24.152-60.384s-8.0506-45.745-24.152-60.384c-16.101 14.638-24.152 34.766-24.152 60.384s8.0506 45.745 24.152 60.384z" color="#ffffff"/><path d="m10.378 49.618h114.72m-114.72 36.23h114.72" color="#ffffff"/></g></svg>
